<svg viewBox="0 0 220 54" fill="none" xmlns="http://www.w3.org/2000/svg">
<g clip-path="url(#clip0_360_5086)">
<path d="M21.2852 3.28881C21.1336 3.31123 20.8026 3.35608 20.5557 3.38971C20.3088 3.42335 19.9665 3.4738 19.7982 3.50743C19.6298 3.54107 19.2819 3.5803 19.0295 3.59712C18.7713 3.61394 18.5637 3.64758 18.5637 3.6756C18.5637 3.70363 18.4907 3.72606 18.3954 3.72606C18.3056 3.72606 18.2271 3.74848 18.2271 3.78211C18.2271 3.81014 18.1261 3.83817 18.0026 3.83817C17.8791 3.83817 17.7781 3.8606 17.7781 3.89423C17.7781 3.92226 17.6771 3.95029 17.5536 3.95029C17.4303 3.95029 17.3293 3.97271 17.3293 4.00634C17.3293 4.03438 17.217 4.0624 17.0767 4.0624C16.9365 4.0624 16.8242 4.08483 16.8242 4.11846C16.8242 4.14649 16.7905 4.17452 16.7513 4.17452C16.7063 4.17452 16.5941 4.21376 16.4987 4.25861C16.4034 4.30906 16.1845 4.38194 16.0049 4.43239C15.6851 4.51647 15.0286 4.75191 14.849 4.85282C14.7929 4.88084 14.6975 4.90327 14.6358 4.90327C14.5741 4.90327 14.5236 4.92569 14.5236 4.95933C14.5236 4.98736 14.4731 5.01539 14.4114 5.01539C14.2991 5.01539 14.2487 5.0378 13.9793 5.17234C13.9063 5.21159 13.8165 5.23962 13.7717 5.23962C13.7268 5.23962 13.6819 5.25643 13.6707 5.27885C13.6651 5.30688 13.2498 5.5255 12.756 5.76656C12.2622 6.01321 11.8526 6.23183 11.8414 6.25986C11.8301 6.28229 11.7853 6.30471 11.7404 6.30471C11.6955 6.30471 11.6619 6.32713 11.6619 6.36077C11.6619 6.3888 11.6114 6.41682 11.5496 6.41682C11.4879 6.41682 11.4374 6.43925 11.4374 6.47289C11.4374 6.50092 11.3868 6.52894 11.3252 6.52894C11.2634 6.52894 11.2129 6.54576 11.2129 6.57379C11.2129 6.59621 11.0278 6.72514 10.809 6.86528C10.5845 6.99983 10.3881 7.12876 10.3713 7.14557C10.3544 7.16801 10.2534 7.22966 10.1468 7.29132C10.0402 7.34739 9.91116 7.44268 9.86062 7.49314C9.81015 7.54919 9.74282 7.59404 9.70347 7.59404C9.66981 7.59404 9.64181 7.61646 9.64181 7.6501C9.64181 7.67812 9.60815 7.70615 9.56321 7.70615C9.51833 7.70615 9.47346 7.72297 9.4622 7.74539C9.45659 7.77343 9.29393 7.90236 9.10871 8.0425C8.68787 8.36203 8.6654 8.37885 8.46907 8.54702C8.18284 8.79367 8.07064 8.88337 8.04257 8.88337C7.97523 8.88337 6.05058 10.7501 6.05058 10.8173C6.05058 10.8454 5.80368 11.1369 5.56801 11.3723C5.50628 11.4396 5.42772 11.5349 5.39967 11.5853C5.37161 11.6358 5.25378 11.7871 5.14155 11.9217C4.71509 12.415 4.64776 12.4991 4.64776 12.5439C4.64776 12.5664 4.58603 12.6505 4.50747 12.7289C4.42892 12.8074 4.3672 12.8915 4.3672 12.9195C4.3672 12.9476 4.33353 13.0036 4.29425 13.0428C4.25498 13.0821 4.12591 13.2727 4.00246 13.4633C3.87902 13.6595 3.76118 13.8164 3.73873 13.8164C3.71068 13.8164 3.69385 13.8501 3.69385 13.8893C3.69385 13.9285 3.64895 14.0126 3.59845 14.0743C3.54234 14.1304 3.46378 14.2481 3.4189 14.3322C3.374 14.4219 3.3179 14.4891 3.28984 14.4891C3.26739 14.4891 3.24494 14.5396 3.24494 14.5956C3.24494 14.6573 3.22811 14.7134 3.20566 14.7246C3.14956 14.747 2.93071 15.1394 2.61648 15.7785C2.48181 16.042 2.35837 16.2606 2.33592 16.2718C2.30786 16.283 2.29104 16.339 2.29104 16.4007C2.29104 16.4568 2.26858 16.5073 2.23491 16.5073C2.20686 16.5073 2.1788 16.5577 2.1788 16.6194C2.1788 16.6809 2.15635 16.7314 2.12269 16.7314C2.09463 16.7314 2.06657 16.7819 2.06657 16.8436C2.06657 16.9052 2.04414 16.9557 2.01047 16.9557C1.98241 16.9557 1.95435 17.0006 1.95435 17.0566C1.95435 17.1126 1.8814 17.3144 1.78602 17.505C1.69623 17.6957 1.61768 17.8807 1.61768 17.9087C1.61768 17.9366 1.58401 18.0432 1.53912 18.1441C1.49422 18.245 1.40444 18.4804 1.33711 18.6655C1.26978 18.8505 1.19122 19.0466 1.16317 19.0971C1.13511 19.1531 1.11266 19.2597 1.11266 19.3324C1.11266 19.411 1.09022 19.4895 1.05655 19.5062C1.0285 19.5231 1.00044 19.6128 1.00044 19.7081C1.00044 19.7978 0.977992 19.8707 0.944323 19.8707C0.916268 19.8707 0.888213 19.9436 0.888213 20.0388C0.888213 20.1285 0.865764 20.207 0.832103 20.207C0.80404 20.207 0.775985 20.2967 0.775985 20.4032C0.775985 20.5098 0.753545 20.5994 0.725486 20.5994C0.697429 20.5994 0.663761 20.706 0.646927 20.8348C0.630094 20.9694 0.590815 21.188 0.562758 21.3282C0.529091 21.4684 0.43931 21.8831 0.360753 22.2532C0.0689673 23.6042 -0.0769252 26.2445 0.040911 28.1392C0.12508 29.4846 0.186804 30.0339 0.366365 30.914C0.551536 31.8054 0.607649 32.1193 0.646927 32.4107C0.663761 32.5454 0.697429 32.6518 0.725486 32.6518C0.753545 32.6518 0.775985 32.7414 0.775985 32.848C0.775985 32.9545 0.80404 33.0443 0.832103 33.0443C0.865764 33.0443 0.888213 33.1171 0.888213 33.2124C0.888213 33.3021 0.916268 33.3805 0.944323 33.3805C0.977992 33.3805 1.00044 33.4535 1.00044 33.5488C1.00044 33.6384 1.0285 33.7169 1.05655 33.7169C1.09022 33.7169 1.11266 33.7898 1.11266 33.8795C1.11266 33.9748 1.14072 34.0645 1.16878 34.0813C1.20244 34.0981 1.22488 34.1654 1.22488 34.2271C1.22488 34.2831 1.24733 34.3784 1.27539 34.4345C1.30905 34.485 1.39884 34.7203 1.4774 34.9502C1.64574 35.4155 1.66818 35.4827 1.83652 35.8584C1.90386 36.0041 1.95435 36.1667 1.95435 36.2115C1.95435 36.2563 1.98241 36.2956 2.01047 36.2956C2.04414 36.2956 2.06657 36.346 2.06657 36.4077C2.06657 36.4694 2.09463 36.5198 2.12269 36.5198C2.15635 36.5198 2.1788 36.5591 2.1788 36.6039C2.1788 36.6487 2.22931 36.772 2.29104 36.8842C2.35275 36.9963 2.40325 37.1196 2.40325 37.1645C2.40325 37.2093 2.4313 37.2485 2.45937 37.2485C2.49303 37.2485 2.51548 37.299 2.51548 37.3551C2.51548 37.4168 2.53793 37.4728 2.56037 37.4839C2.58842 37.4896 2.7287 37.7251 2.88021 38.0053C3.0261 38.2801 3.17199 38.5211 3.19444 38.5266C3.2225 38.5378 3.24494 38.594 3.24494 38.6557C3.24494 38.7116 3.26739 38.7621 3.29544 38.7621C3.3235 38.7621 3.374 38.835 3.41328 38.9304C3.45256 39.02 3.50306 39.0985 3.53112 39.0985C3.55917 39.0985 3.58162 39.1377 3.58162 39.1826C3.58162 39.2273 3.60968 39.2667 3.63773 39.2667C3.6714 39.2667 3.69385 39.3059 3.69385 39.3507C3.69385 39.3956 3.7219 39.4348 3.74995 39.4348C3.78363 39.4348 3.80607 39.4628 3.80607 39.4964C3.80607 39.5693 4.19325 40.1243 4.2662 40.1524C4.28863 40.1636 4.31108 40.2197 4.31108 40.2812C4.31108 40.3374 4.33353 40.3878 4.35598 40.3878C4.38403 40.3878 4.44014 40.455 4.48504 40.5391C4.56359 40.6961 4.66459 40.8362 4.79926 40.9764C4.83855 41.0213 4.8722 41.0773 4.8722 41.0998C4.8722 41.1278 4.95638 41.2398 5.05738 41.352C5.15277 41.4641 5.29306 41.6267 5.36039 41.7164C5.42772 41.8005 5.64656 42.0471 5.84858 42.2601C6.05058 42.4675 6.21891 42.6637 6.21891 42.6862C6.21891 42.7422 8.29505 44.8163 8.35679 44.8163C8.38486 44.8163 8.51954 44.9284 8.65421 45.0687C8.79449 45.2087 8.92357 45.3209 8.94036 45.3209C8.95723 45.3209 9.04136 45.3825 9.12557 45.461C9.20972 45.5394 9.36686 45.6628 9.47346 45.7301C9.58007 45.7973 9.69788 45.8758 9.73154 45.9095C9.76521 45.9375 9.85502 46.0048 9.92236 46.0496C9.9897 46.0945 10.0794 46.1561 10.1131 46.1898C10.1468 46.2178 10.2422 46.2795 10.332 46.3242C10.4161 46.3692 10.4835 46.4252 10.4835 46.4533C10.4835 46.4757 10.5227 46.498 10.5677 46.498C10.6125 46.498 10.6518 46.5205 10.6518 46.543C10.6518 46.5709 10.7191 46.6271 10.809 46.6718C10.8931 46.7167 10.9997 46.7952 11.0502 46.8456C11.1007 46.9017 11.1736 46.9465 11.2073 46.9465C11.2466 46.9465 11.3027 46.9747 11.342 47.0026C11.516 47.1483 12.1668 47.5631 12.2229 47.5631C12.251 47.5631 12.2791 47.5857 12.2791 47.6193C12.2791 47.6473 12.3239 47.6753 12.3801 47.6753C12.4362 47.6753 12.5147 47.7257 12.5597 47.7874C12.6046 47.8491 12.6831 47.8995 12.7392 47.8995C12.7954 47.8995 12.8402 47.9219 12.8402 47.9557C12.8402 47.9836 12.8795 48.0116 12.9243 48.0116C12.9693 48.0116 13.0085 48.0285 13.0085 48.0509C13.0085 48.0788 13.0646 48.1238 13.1376 48.1574C13.3958 48.2807 14.1027 48.6563 14.1308 48.6843C14.1589 48.7124 14.5685 48.9143 14.8603 49.0374C14.9388 49.0712 15.0679 49.144 15.1521 49.2C15.2306 49.2562 15.3541 49.301 15.4158 49.301C15.4831 49.301 15.5336 49.3234 15.5336 49.357C15.5336 49.385 15.5953 49.4131 15.6738 49.4131C15.7525 49.4131 15.8141 49.4355 15.8141 49.4579C15.8141 49.4803 15.932 49.5364 16.0835 49.5757C16.2295 49.6205 16.3865 49.6765 16.4314 49.7046C16.51 49.7494 17.4303 50.0129 17.9745 50.1475C18.5805 50.2988 19.209 50.4222 19.5344 50.4613C19.6803 50.4782 19.7982 50.5118 19.7982 50.5398C19.7982 50.5679 19.9272 50.5903 20.0788 50.5903C20.2358 50.5903 20.3593 50.6127 20.3593 50.6408C20.3593 50.7361 21.3469 50.7753 23.8944 50.7753C26.4251 50.7753 27.3734 50.7417 27.3734 50.6408C27.3734 50.6127 27.4856 50.5903 27.6258 50.5903C27.7662 50.5903 27.8784 50.5679 27.8784 50.5398C27.8784 50.5118 27.985 50.4782 28.1196 50.4613C28.3554 50.4334 28.6527 50.3717 29.0848 50.2596C29.2083 50.226 29.4102 50.181 29.5337 50.1531C29.6572 50.1194 29.9882 50.0184 30.2745 49.9232C30.5606 49.8279 30.8299 49.7494 30.8692 49.7494C30.9477 49.7494 31.4696 49.5588 31.6492 49.4636C31.7052 49.4355 31.8006 49.4131 31.8624 49.4131C31.9241 49.4131 31.9747 49.385 31.9747 49.357C31.9747 49.3234 32.0364 49.301 32.1093 49.301C32.1878 49.301 32.2665 49.2729 32.2832 49.245C32.3001 49.2112 32.3675 49.1889 32.4291 49.1889C32.4852 49.1889 32.5358 49.1608 32.5358 49.1328C32.5358 49.0991 32.5974 49.0767 32.676 49.0767C32.7546 49.0767 32.8163 49.0486 32.8163 49.0207C32.8163 48.987 32.8556 48.9646 32.9005 48.9646C32.9734 48.9646 33.7814 48.6059 34.2921 48.3479C34.4155 48.2864 34.5446 48.2359 34.5894 48.2359C34.6344 48.2359 34.668 48.2079 34.668 48.1798C34.668 48.1462 34.7185 48.1238 34.7802 48.1238C34.8419 48.1238 34.8925 48.0957 34.8925 48.0677C34.8925 48.0341 34.9318 48.0116 34.9767 48.0116C35.0216 48.0116 35.0608 47.9948 35.0608 47.9668C35.0608 47.9445 35.1562 47.8827 35.274 47.8323C35.4704 47.7369 35.7453 47.5857 35.8745 47.4903C36.0092 47.3894 36.3401 47.1819 36.5646 47.0587C36.6937 46.9859 36.8003 46.9073 36.8003 46.8793C36.8003 46.8568 36.834 46.8344 36.8733 46.8344C36.9126 46.8344 37.0024 46.784 37.0697 46.7223C37.137 46.6607 37.2156 46.6102 37.2492 46.6102C37.2829 46.6102 37.3726 46.5542 37.4456 46.4869C37.5185 46.414 37.7992 46.2066 38.0629 46.0216C38.3321 45.8366 38.6352 45.6011 38.7418 45.5002C38.8428 45.405 38.9494 45.3209 38.9719 45.3209C39 45.3209 39.056 45.2704 39.1009 45.2087C39.1458 45.1471 39.1964 45.0966 39.2131 45.0966C39.3085 45.0966 40.8573 43.5831 41.7102 42.6581C41.9571 42.389 42.1927 42.1367 42.232 42.0976C42.2656 42.0527 42.2993 42.0079 42.2993 41.991C42.2993 41.9686 42.3779 41.8789 42.4677 41.778C42.5631 41.6827 42.6361 41.5707 42.6361 41.5314C42.6361 41.4921 42.6584 41.4529 42.6865 41.4417C42.7146 41.4304 42.8829 41.195 43.0568 40.9203C43.2365 40.64 43.4048 40.4047 43.4273 40.399C43.4553 40.3878 43.4777 40.3317 43.4777 40.27C43.4777 40.214 43.5058 40.1636 43.5339 40.1636C43.5675 40.1636 43.59 40.1299 43.59 40.085C43.59 40.0402 43.6068 39.9954 43.6349 39.9842C43.7134 39.9505 44.2297 38.9192 44.4261 38.3978C44.499 38.2128 44.5775 38.0109 44.6 37.9493C44.6281 37.8876 44.6785 37.7363 44.7178 37.613C44.7571 37.4896 44.8132 37.3663 44.8356 37.3327C44.858 37.3046 44.8805 37.2149 44.8805 37.1308C44.8805 37.0467 44.9086 36.957 44.9366 36.9403C44.9647 36.9234 44.9927 36.817 44.9927 36.7104C44.9927 36.6039 45.0152 36.5198 45.0432 36.5198C45.0713 36.5198 45.105 36.4132 45.1219 36.2787C45.1386 36.1498 45.1836 35.9144 45.2173 35.7631C45.3239 35.2809 45.3744 35.0007 45.4753 34.2663C45.5932 33.431 45.5595 33.2685 45.2733 33.2685C45.1442 33.2685 45.105 33.2965 45.105 33.375C45.105 33.4366 45.0881 33.4927 45.0601 33.504C45.0376 33.5095 44.9478 33.7338 44.858 33.9972C44.7683 34.2607 44.6225 34.6363 44.5327 34.8324C44.4485 35.0286 44.3755 35.2249 44.3755 35.2641C44.3755 35.3089 44.3531 35.3426 44.3195 35.3426C44.2914 35.3426 44.2633 35.3931 44.2633 35.4491C44.2633 35.5108 44.2408 35.5781 44.2072 35.5949C44.1791 35.6117 44.151 35.6789 44.151 35.7406C44.151 35.7967 44.1285 35.8472 44.0949 35.8472C44.0669 35.8472 44.0388 35.8975 44.0388 35.9593C44.0388 36.021 44.022 36.0713 43.9995 36.0713C43.949 36.0713 43.8144 36.346 43.8144 36.447C43.8144 36.4862 43.7919 36.5198 43.7582 36.5198C43.7303 36.5198 43.7022 36.5423 43.7022 36.5647C43.7022 36.6151 43.2421 37.4504 43.1578 37.5568C42.9727 37.7923 42.7483 38.1455 42.7483 38.1959C42.7483 38.2296 42.7258 38.2576 42.6921 38.2576C42.6641 38.2576 42.6361 38.2968 42.6361 38.3416C42.6361 38.3866 42.6136 38.4258 42.5799 38.4258C42.5519 38.4258 42.5238 38.4594 42.5238 38.493C42.5238 38.5323 42.4622 38.6388 42.3835 38.7285C42.305 38.8182 42.2433 38.9135 42.2433 38.9359C42.2433 38.9583 42.1871 39.0368 42.1142 39.1097C42.0469 39.1826 41.9459 39.3059 41.8897 39.39C41.7439 39.6198 41.5306 39.7431 41.4296 39.659C41.3623 39.603 41.3678 39.5637 41.4801 39.39C41.6877 39.0649 41.929 38.6388 42.0075 38.4538C42.0525 38.3585 42.1085 38.2408 42.1366 38.1903C42.1646 38.1343 42.1871 38.039 42.1871 37.9829C42.1871 37.9213 42.2095 37.8596 42.2376 37.8428C42.2825 37.8092 42.2993 37.7418 42.3891 37.2317C42.406 37.1196 42.4453 37.0075 42.4733 36.9908C42.5014 36.9739 42.5238 36.8617 42.5238 36.7385C42.5238 36.6208 42.5519 36.5198 42.5799 36.5198C42.6136 36.5198 42.6361 36.4189 42.6361 36.2956C42.6361 36.1722 42.6641 36.0713 42.6921 36.0713C42.7258 36.0713 42.7483 36.0097 42.7483 35.9313C42.7483 35.8134 42.9391 34.9894 43.2027 33.9692C43.3094 33.5657 43.3542 33.3581 43.4217 33.0162C43.4553 32.8312 43.5058 32.6014 43.5395 32.5061C43.5675 32.4107 43.59 32.2314 43.59 32.1025C43.59 31.9792 43.618 31.8558 43.646 31.839C43.6797 31.8222 43.7022 31.6316 43.7022 31.4242C43.7022 31.2168 43.7246 31.0262 43.7526 30.9925C43.82 30.9252 43.8649 30.2694 43.9042 28.6437C43.9266 27.5898 43.9154 27.2648 43.8424 26.8498C43.7919 26.5696 43.7359 26.2388 43.719 26.1043C43.6966 25.9305 43.6685 25.8688 43.59 25.8688C43.4946 25.8688 43.3992 26.1043 43.0793 27.1862C43.0176 27.3992 42.9391 27.6571 42.911 27.7524C42.8829 27.8476 42.8604 27.9767 42.8604 28.0439C42.8604 28.1055 42.8381 28.1784 42.8044 28.1952C42.7763 28.212 42.7483 28.3017 42.7483 28.397C42.7483 28.4868 42.7258 28.5596 42.6921 28.5596C42.6641 28.5596 42.6361 28.6324 42.6361 28.7277C42.6361 28.8175 42.6136 28.896 42.5799 28.896C42.5519 28.896 42.5238 28.98 42.5238 29.0865C42.5238 29.1931 42.5014 29.2996 42.4677 29.3163C42.4397 29.3332 42.4116 29.4117 42.4116 29.4846C42.4116 29.5575 42.3891 29.636 42.3554 29.6527C42.3274 29.6696 42.2993 29.7368 42.2993 29.7985C42.2993 29.8546 42.2769 29.9498 42.2433 30.0059C42.1535 30.1685 41.7943 31.099 41.7943 31.1775C41.7943 31.2168 41.7719 31.2504 41.7383 31.2504C41.7102 31.2504 41.6821 31.3009 41.6821 31.3625C41.6821 31.4242 41.6597 31.4747 41.626 31.4747C41.5979 31.4747 41.57 31.5251 41.57 31.5868C41.57 31.6485 41.5475 31.6988 41.5138 31.6988C41.4857 31.6988 41.4577 31.7325 41.4577 31.7773C41.4577 31.8838 41.222 32.3154 41.1659 32.3154C41.1434 32.3154 41.121 32.3547 41.121 32.3995C41.121 32.45 40.9527 32.8088 40.7451 33.2012C40.3017 34.0476 40.2625 34.1262 40.2231 34.1654C40.1559 34.2326 40.0549 34.4513 40.0549 34.5298C40.0549 34.5746 40.0324 34.6139 39.9987 34.6139C39.9707 34.6139 39.9426 34.6643 39.9426 34.7315C39.9426 34.8662 39.8192 35.0062 39.6957 35.0062C39.634 35.0062 39.6059 34.9558 39.6059 34.8381C39.6059 34.7428 39.5836 34.6698 39.5555 34.6698C39.5274 34.6698 39.4937 34.6139 39.4769 34.5465C39.4601 34.4233 39.4544 34.4233 39.4095 34.5298C39.3815 34.5914 39.3029 34.6979 39.2356 34.7652C39.1402 34.8548 39.1009 34.8717 39.0448 34.8213C38.9887 34.7708 38.9831 34.782 39.0111 34.8941C39.028 34.9727 39.028 35.0007 39.0111 34.9614C38.9719 34.8717 38.8765 34.8717 38.8765 34.967C38.8765 35.0679 38.7418 35.3426 38.697 35.3426C38.6689 35.3426 38.652 35.3931 38.652 35.4491C38.652 35.5108 38.6352 35.5668 38.6071 35.5781C38.5847 35.5837 38.4163 35.7967 38.2311 36.0434C38.0516 36.2901 37.8833 36.503 37.8665 36.5198C37.8496 36.5366 37.7711 36.6375 37.6982 36.7441C37.6251 36.8506 37.4905 37.0075 37.4062 37.0916C37.3221 37.1701 37.2492 37.2542 37.2492 37.271C37.2492 37.3551 35.3246 39.1994 34.9991 39.4348C34.7634 39.603 34.741 39.6198 34.4828 39.8496C34.365 39.9505 34.2023 40.0683 34.1182 40.1131C34.0396 40.158 33.8937 40.2588 33.8039 40.3429C33.7141 40.4326 33.6075 40.5 33.5682 40.5C33.5233 40.5 33.4896 40.5223 33.4896 40.5504C33.4896 40.5784 33.4392 40.6233 33.3774 40.64C33.3157 40.6624 33.1979 40.7354 33.1081 40.8026C33.0239 40.8699 32.8667 40.9764 32.7602 41.0381C32.6536 41.0941 32.5526 41.1614 32.5358 41.1782C32.5189 41.195 32.3954 41.2679 32.2552 41.3464C32.1149 41.4192 31.997 41.4977 31.9858 41.5202C31.9747 41.5482 31.9185 41.565 31.8568 41.565C31.8006 41.565 31.7502 41.5874 31.7502 41.621C31.7502 41.6491 31.6996 41.6771 31.6436 41.6771C31.5819 41.6771 31.5257 41.6995 31.5145 41.722C31.4976 41.7724 30.3978 42.3105 30.179 42.3778C30.1004 42.4003 30.0162 42.4395 29.9826 42.4619C29.9545 42.4843 29.8086 42.5348 29.6628 42.5796C29.5112 42.6189 29.3935 42.675 29.3935 42.6974C29.3935 42.7198 29.3205 42.7422 29.2251 42.7422C29.1353 42.7422 29.0567 42.7646 29.0567 42.7982C29.0567 42.8263 28.995 42.8544 28.922 42.8544C28.8435 42.8544 28.765 42.8824 28.7481 42.9103C28.7313 42.9384 28.6415 42.9665 28.5517 42.9665C28.462 42.9665 28.3722 42.9889 28.3554 43.0225C28.3385 43.0506 28.2487 43.0786 28.1533 43.0786C28.0635 43.0786 27.9906 43.101 27.9906 43.1291C27.9906 43.157 27.9065 43.1907 27.8111 43.2075C27.7101 43.2243 27.525 43.2636 27.4015 43.3028C26.9301 43.4317 26.4364 43.527 26.2006 43.527C26.0659 43.527 25.7012 43.5663 25.387 43.6167C24.91 43.6951 24.7753 43.6951 24.5116 43.6391C24.3433 43.5999 24.001 43.5718 23.7542 43.5775C22.7833 43.6111 21.5264 43.5326 21.0103 43.4093C20.7689 43.3532 20.5163 43.3028 20.4547 43.3028C20.3312 43.3028 20.0002 43.2075 19.843 43.1291C19.787 43.101 19.7028 43.0786 19.6579 43.0786C19.613 43.0786 19.5737 43.0506 19.5737 43.0225C19.5737 42.9889 19.512 42.9665 19.4334 42.9665C19.3549 42.9665 19.2932 42.9384 19.2932 42.9103C19.2932 42.8768 19.2426 42.8544 19.181 42.8544C19.1193 42.8544 19.0687 42.8263 19.0687 42.7982C19.0687 42.7646 19.0239 42.7422 18.9677 42.7422C18.9116 42.7422 18.5412 42.5853 18.1428 42.389C17.7389 42.1929 17.3236 42.0022 17.217 41.9574C17.1104 41.9126 16.9365 41.8341 16.8354 41.778C16.7344 41.722 16.6166 41.6771 16.5717 41.6771C16.5268 41.6771 16.4875 41.6491 16.4875 41.621C16.4875 41.5874 16.4146 41.565 16.3192 41.565C16.2295 41.565 16.1509 41.537 16.1509 41.509C16.1509 41.4753 16.1004 41.4529 16.0387 41.4529C15.9769 41.4529 15.9264 41.4248 15.9264 41.3969C15.9264 41.3632 15.8927 41.3407 15.8535 41.3407C15.8085 41.3407 15.5392 41.2119 15.2475 41.0548C14.9557 40.9035 14.6751 40.7578 14.6246 40.741C14.5685 40.7241 14.5236 40.6905 14.5236 40.6624C14.5236 40.6344 14.4844 40.6121 14.4394 40.6121C14.3945 40.6121 14.3553 40.584 14.3553 40.5559C14.3553 40.5223 14.3216 40.5 14.2824 40.5C14.243 40.5 14.1533 40.4495 14.0858 40.3878C14.0185 40.3262 13.94 40.2757 13.9063 40.2757C13.8783 40.2757 13.8502 40.2476 13.8502 40.2197C13.8502 40.1859 13.8165 40.1636 13.7717 40.1636C13.7268 40.1636 13.6819 40.1467 13.6707 40.1187C13.6651 40.0963 13.4912 39.9505 13.2892 39.788C13.0871 39.6311 12.7841 39.3564 12.6101 39.1769C12.4362 38.992 12.2342 38.7957 12.1612 38.7285C11.9311 38.5323 10.9885 37.5121 10.9885 37.4672C10.9885 37.4392 10.8594 37.2878 10.7079 37.1253C10.5508 36.9627 10.4105 36.7889 10.3937 36.7329C10.3769 36.6768 10.3432 36.632 10.3151 36.632C10.287 36.632 10.2534 36.587 10.231 36.5254C10.2141 36.4694 10.1356 36.3517 10.0626 36.2619C9.98409 36.1722 9.92236 36.0657 9.92236 36.0265C9.92236 35.9929 9.89989 35.9593 9.86622 35.9593C9.83815 35.9593 9.81015 35.9088 9.81015 35.8472C9.81015 35.7855 9.78768 35.735 9.75402 35.735C9.72594 35.735 9.69788 35.6958 9.69788 35.6509C9.69788 35.6061 9.67548 35.5668 9.64181 35.5668C9.61374 35.5668 9.58568 35.5276 9.58568 35.4827C9.58568 35.4379 9.56319 35.3987 9.5408 35.3987C9.51273 35.3987 9.4622 35.3089 9.41733 35.2024C9.37246 35.096 9.32192 35.0062 9.29393 35.0062C9.27145 35.0062 9.24898 34.9558 9.24898 34.8998C9.24898 34.8381 9.23219 34.782 9.20972 34.7708C9.14798 34.7484 8.74402 33.9019 8.74402 33.801C8.74402 33.7562 8.72155 33.7169 8.68787 33.7169C8.65981 33.7169 8.63174 33.6665 8.63174 33.6048C8.63174 33.5431 8.60935 33.4927 8.57567 33.4927C8.54761 33.4927 8.51954 33.4422 8.51954 33.3805C8.51954 33.319 8.49706 33.2685 8.4634 33.2685C8.43539 33.2685 8.40733 33.2068 8.40733 33.1283C8.40733 33.0498 8.38486 32.9881 8.35118 32.9881C8.32312 32.9881 8.29505 32.949 8.29505 32.9041C8.29505 32.8593 8.27266 32.7752 8.24458 32.7191C8.07624 32.394 7.61047 30.9925 7.50954 30.5216C7.47586 30.3535 7.41972 30.1349 7.39166 30.0396C7.36361 29.9442 7.34117 29.7929 7.34117 29.692C7.34117 29.5967 7.3131 29.5013 7.28505 29.4846C7.25139 29.4678 7.22894 29.3276 7.22894 29.1706C7.22894 29.0194 7.20649 28.896 7.17284 28.896C7.13916 28.896 7.11671 28.7503 7.11671 28.5653C7.11671 28.3803 7.09428 28.2177 7.06621 28.2008C6.89227 28.0887 6.88666 24.2768 7.0606 23.8788C7.08866 23.8171 7.12233 23.6265 7.13916 23.4584C7.18406 22.9482 7.23455 22.6511 7.28505 22.5335C7.3131 22.4718 7.34678 22.3428 7.36361 22.2532C7.39166 22.0849 7.45901 21.7654 7.5544 21.3562C7.58248 21.2329 7.64982 21.0198 7.70028 20.8798C7.84056 20.5041 7.93597 20.2126 8.02009 19.91C8.05944 19.7641 8.1155 19.6465 8.13797 19.6465C8.16045 19.6465 8.18284 19.596 8.18284 19.5343C8.18284 19.4727 8.21092 19.4222 8.23898 19.4222C8.27266 19.4222 8.29505 19.3717 8.29505 19.3101C8.29505 19.2484 8.32312 19.1981 8.35118 19.1981C8.38486 19.1981 8.40733 19.1476 8.40733 19.0914C8.40733 19.0298 8.43539 18.9626 8.4634 18.9457C8.49706 18.929 8.51954 18.8505 8.51954 18.7719C8.51954 18.6991 8.54761 18.6374 8.57567 18.6374C8.60935 18.6374 8.63174 18.587 8.63174 18.5309C8.63174 18.4692 8.64862 18.4133 8.67668 18.4019C8.69908 18.3907 8.91797 17.9871 9.16484 17.4994C9.41172 17.0173 9.62493 16.6194 9.64181 16.6194C9.6642 16.6194 9.70914 16.5296 9.75402 16.4232C9.79889 16.3166 9.84942 16.227 9.87749 16.227C9.89989 16.227 9.92236 16.1765 9.92236 16.1148C9.92236 16.0532 9.95043 16.0027 9.97842 16.0027C10.0121 16.0027 10.0346 15.969 10.0346 15.9298C10.0346 15.885 10.13 15.6551 10.2534 15.4084C10.4105 15.089 10.5901 14.8423 10.91 14.506C11.1568 14.2537 11.5048 13.8837 11.6899 13.6763C12.6326 12.6224 13.1207 12.1347 13.4294 11.9273C13.5529 11.8376 13.6932 11.7255 13.7436 11.675C13.7942 11.619 13.8615 11.5741 13.9007 11.5741C13.9344 11.5741 13.9625 11.5461 13.9625 11.5181C13.9625 11.4844 14.0129 11.462 14.0747 11.462C14.1364 11.462 14.187 11.434 14.187 11.406C14.187 11.3723 14.2262 11.3499 14.2711 11.3499C14.316 11.3499 14.3553 11.3219 14.3553 11.2939C14.3553 11.2602 14.3945 11.2378 14.4394 11.2378C14.4844 11.2378 14.5236 11.2153 14.5236 11.1873C14.5236 11.1593 14.6021 11.1089 14.6919 11.0696C14.7873 11.0304 14.8603 10.98 14.8603 10.9519C14.8603 10.9239 14.9107 10.9014 14.9725 10.9014C15.0342 10.9014 15.0847 10.879 15.0847 10.851C15.0847 10.823 15.1296 10.7893 15.1857 10.7725C15.2363 10.7557 15.4663 10.638 15.6963 10.5146C15.9208 10.3857 16.1397 10.2848 16.1845 10.2848C16.2295 10.2848 16.2632 10.2568 16.2632 10.2287C16.2632 10.1951 16.2968 10.1727 16.3361 10.1727C16.4371 10.1727 16.712 10.0382 16.712 9.9877C16.712 9.96527 16.7624 9.94846 16.8242 9.94846C16.8859 9.94846 16.9813 9.92603 17.0375 9.898C17.0879 9.86438 17.2002 9.83074 17.2843 9.80831C17.3685 9.7915 17.4695 9.74105 17.5088 9.6962C17.5761 9.62333 18.0532 9.46075 19.0127 9.18047C19.181 9.13002 19.3492 9.07395 19.3773 9.05155C19.439 9.00669 19.7757 8.95063 20.3481 8.90578C20.5388 8.88897 20.696 8.84973 20.696 8.8217C20.696 8.79367 20.8587 8.77125 21.0607 8.77125C21.2627 8.77125 21.4254 8.74882 21.4254 8.7264C21.4254 8.55263 23.8775 8.42931 24.9044 8.54702C25.2299 8.58627 25.6059 8.6255 25.7462 8.64232C25.8864 8.65913 26.0211 8.69277 26.0492 8.7208C26.0828 8.74882 26.2904 8.77125 26.5149 8.77125C26.7394 8.77125 26.9245 8.79367 26.9245 8.8217C26.9245 8.84973 27.031 8.88337 27.1657 8.90018C27.2948 8.917 27.5025 8.95624 27.6258 8.98426C27.7493 9.0179 28.0018 9.07957 28.1926 9.13002C28.7762 9.27577 29.8367 9.63454 30.1341 9.7859C30.1903 9.81393 30.2857 9.83634 30.3474 9.83634C30.4091 9.83634 30.4596 9.85877 30.4596 9.89241C30.4596 9.92043 30.5101 9.94846 30.5718 9.94846C30.6335 9.94846 30.6841 9.97089 30.6841 10.0045C30.6841 10.0325 30.7345 10.0606 30.7962 10.0606C30.858 10.0606 30.9084 10.083 30.9084 10.1166C30.9084 10.1447 30.9421 10.1727 30.9871 10.1727C31.0936 10.1727 32.0532 10.638 32.3675 10.8398C32.5077 10.9294 32.6536 11.008 32.6928 11.008C32.7265 11.0135 32.7602 11.036 32.7602 11.0696C32.7602 11.0976 32.7994 11.1257 32.8444 11.1257C32.8892 11.1257 32.9285 11.1481 32.9285 11.1705C32.9285 11.1985 32.9959 11.2546 33.0856 11.2994C33.1698 11.3443 33.2764 11.4228 33.327 11.4732C33.3774 11.5293 33.456 11.5741 33.5065 11.5741C33.5514 11.5741 33.6019 11.591 33.6131 11.6133C33.6243 11.6414 33.7702 11.7535 33.9386 11.8657C34.1069 11.9833 34.337 12.1516 34.4436 12.2468C34.5501 12.3366 34.6624 12.415 34.6848 12.415C34.7129 12.415 34.8252 12.5103 34.9374 12.6224C35.0496 12.7401 35.2628 12.9307 35.4031 13.0428C35.7566 13.3287 36.5421 14.108 36.8845 14.5172C37.036 14.7022 37.1819 14.8591 37.2044 14.8703C37.2323 14.8815 37.2492 14.9264 37.2492 14.9712C37.2492 15.0161 37.2773 15.0496 37.3053 15.0496C37.3389 15.0496 37.3614 15.0778 37.3614 15.1113C37.3614 15.145 37.4343 15.2459 37.5297 15.3301C37.6251 15.4141 37.6982 15.5037 37.6982 15.5263C37.6982 15.543 37.7318 15.5935 37.7711 15.6327C37.945 15.8121 38.1974 16.1765 38.4612 16.6473C38.5903 16.8716 38.7587 17.0118 38.9494 17.0509C39.0336 17.0678 39.1851 17.1575 39.2749 17.2416C39.3703 17.3313 39.4601 17.4042 39.4713 17.4042C39.5218 17.4042 39.488 17.1855 39.4376 17.1518C39.4095 17.1351 39.3815 17.0678 39.3815 17.0061C39.3815 16.9445 39.3534 16.8659 39.3253 16.8268C39.23 16.7202 38.652 15.7728 38.652 15.728C38.652 15.7056 38.6016 15.6551 38.5398 15.6103C38.4781 15.5654 38.4275 15.4982 38.4275 15.4534C38.4275 15.4141 38.3434 15.302 38.248 15.2011C38.147 15.1001 38.0123 14.9432 37.9506 14.8591C37.8889 14.775 37.743 14.5956 37.6307 14.4723C37.513 14.3434 37.4175 14.2201 37.4175 14.1976C37.4175 14.136 37.1426 13.8725 37.0809 13.8725C37.0472 13.8725 37.0247 13.8501 37.0247 13.8276C37.0247 13.7548 35.9026 12.6505 35.5377 12.3589C35.3638 12.2188 35.173 12.0618 35.117 12.0058C35.0552 11.9553 34.9935 11.9105 34.971 11.9105C34.9542 11.9105 34.8644 11.832 34.7802 11.7423C34.6961 11.647 34.5894 11.5741 34.5557 11.5741C34.5165 11.5741 34.4436 11.5293 34.3931 11.4732C34.3426 11.4172 34.1911 11.3051 34.0509 11.2265C33.9105 11.1425 33.7422 11.0248 33.6748 10.9631C33.6075 10.8958 33.5289 10.8454 33.5009 10.8454C33.4784 10.8454 33.4055 10.8005 33.3438 10.7445C33.2035 10.6212 32.9285 10.453 32.805 10.4137C32.749 10.3969 32.704 10.3633 32.704 10.3353C32.704 10.3072 32.6536 10.2848 32.5918 10.2848C32.5301 10.2848 32.4796 10.2624 32.4796 10.24C32.4796 10.2119 32.3898 10.1615 32.2832 10.1166C32.1767 10.0718 32.0868 10.0213 32.0868 10.0045C32.0868 9.9821 31.9803 9.92043 31.8512 9.86438C31.7165 9.81393 31.5594 9.74105 31.4976 9.70742C30.9421 9.4103 30.7682 9.33184 30.6784 9.33184C30.6223 9.33184 30.5718 9.3038 30.5718 9.27577C30.5718 9.24213 30.5213 9.21971 30.4596 9.21971C30.3978 9.21971 30.3474 9.19169 30.3474 9.16365C30.3474 9.13002 30.2969 9.1076 30.2351 9.1076C30.1734 9.1076 30.1229 9.07957 30.1229 9.05155C30.1229 9.0179 30.0724 8.99547 30.0106 8.99547C29.9489 8.99547 29.8985 8.96745 29.8985 8.93942C29.8985 8.90578 29.8367 8.88337 29.7582 8.88337C29.6796 8.88337 29.6179 8.86655 29.6179 8.83852C29.6179 8.81609 29.5112 8.76565 29.3823 8.7264C29.1184 8.64232 28.563 8.4405 28.1308 8.25552C27.7549 8.09856 27.6652 8.06492 27.3902 7.98644C27.2555 7.9472 27.1489 7.89114 27.1489 7.86311C27.1489 7.84069 27.0984 7.81827 27.0366 7.81827C26.975 7.81827 26.9245 7.79024 26.9245 7.76222C26.9245 7.72858 26.874 7.70615 26.8123 7.70615C26.7505 7.70615 26.7001 7.67812 26.7001 7.6501C26.7001 7.61646 26.7281 7.59404 26.7561 7.59404C26.7898 7.59404 26.8123 7.566 26.8123 7.53798C26.8123 7.50435 26.6888 7.48193 26.5318 7.48193C26.3802 7.48193 26.2511 7.4595 26.2511 7.43147C26.2511 7.40345 26.1052 7.36981 25.9313 7.35299C25.7518 7.33617 25.4319 7.28572 25.2186 7.23527C24.8988 7.15679 24.5566 7.14557 23.1425 7.16239C21.0383 7.18482 19.9161 7.27451 19.0968 7.48752C18.9733 7.52116 18.7657 7.5604 18.6367 7.57722C18.502 7.59404 18.3954 7.62767 18.3954 7.6557C18.3954 7.68374 18.3112 7.70615 18.2046 7.70615C18.098 7.70615 17.9914 7.72858 17.9745 7.76222C17.9577 7.79024 17.851 7.81827 17.7445 7.81827C17.6379 7.81827 17.5536 7.84069 17.5536 7.87432C17.5536 7.90236 17.4919 7.93039 17.419 7.93039C17.3405 7.93039 17.2619 7.9528 17.2451 7.98644C17.2283 8.01447 17.1497 8.0425 17.0767 8.0425C17.0038 8.0425 16.9252 8.06492 16.9084 8.09856C16.8915 8.12658 16.8354 8.15461 16.7849 8.15461C16.7344 8.15461 16.5324 8.22188 16.3305 8.30036C16.1341 8.37884 15.8141 8.46853 15.629 8.49657C15.2867 8.54702 14.748 8.76004 14.748 8.83852C14.748 8.86655 14.6975 8.88337 14.6358 8.88337C14.5741 8.88337 14.5236 8.90578 14.5236 8.93942C14.5236 8.96745 14.4731 8.99547 14.417 8.99547C14.3553 8.99547 14.2991 9.0179 14.288 9.04033C14.2824 9.06836 14.187 9.1076 14.0916 9.12441C13.9231 9.15805 13.9063 9.14684 13.9063 9.0235C13.9063 8.94502 13.9344 8.88337 13.9625 8.88337C13.9961 8.88337 14.0185 8.83292 14.0185 8.77125C14.0185 8.70959 14.0579 8.65913 14.1027 8.65913C14.1476 8.65913 14.187 8.63111 14.187 8.60308C14.187 8.56944 14.2093 8.54702 14.243 8.54702C14.2711 8.54702 14.4451 8.45172 14.6246 8.334C14.8041 8.22188 15.1128 8.04811 15.3148 7.95841C15.5112 7.86311 15.6851 7.77343 15.6907 7.74539C15.7019 7.72297 15.7581 7.70615 15.8141 7.70615C15.8702 7.70615 15.9376 7.67812 15.9545 7.6501C15.9712 7.61646 16.0499 7.59404 16.1284 7.59404C16.2014 7.59404 16.2632 7.566 16.2632 7.53798C16.2632 7.50435 16.3136 7.48193 16.3753 7.48193C16.4371 7.48193 16.5324 7.4595 16.5885 7.43147C16.639 7.40345 16.7513 7.35299 16.841 7.31935C16.9252 7.28572 17.0487 7.23527 17.1217 7.20724C17.189 7.1736 17.4751 7.08391 17.75 6.99983C18.0307 6.91574 18.2831 6.83166 18.3112 6.80923C18.401 6.73635 19.007 6.5794 19.4054 6.51773C19.6074 6.4897 19.9217 6.43925 20.1069 6.41122C20.292 6.37758 20.5781 6.33834 20.7408 6.32152C20.8981 6.31032 21.0326 6.27107 21.0326 6.24305C21.0326 6.21502 21.2571 6.1926 21.532 6.1926C21.8126 6.1926 22.0539 6.16457 22.0708 6.13654C22.0931 6.0973 22.8227 6.08048 24.1582 6.08048C26.1725 6.08609 26.3633 6.06926 26.3633 5.9067C26.3633 5.81701 25.7349 5.67687 25.2859 5.67126C25.0054 5.66565 24.8203 5.63762 24.809 5.59839C24.7586 5.44702 25.3421 5.4246 25.9424 5.54793C26.8515 5.74413 27.1882 5.8114 27.3453 5.83383C27.4407 5.85065 27.5642 5.88428 27.6258 5.9123C27.7326 5.95716 27.9288 5.99639 28.4283 6.05806C28.5574 6.08048 28.664 6.11412 28.664 6.14214C28.664 6.17017 28.7931 6.1926 28.9445 6.1926C29.1017 6.1926 29.2251 6.21502 29.2251 6.24865C29.2251 6.27667 29.3092 6.30471 29.416 6.30471C29.5225 6.30471 29.6235 6.32713 29.6403 6.35517C29.6572 6.38319 29.7694 6.42244 29.8816 6.44486C29.9995 6.46728 30.1229 6.50092 30.151 6.52334C30.1847 6.54576 30.3193 6.59621 30.4596 6.63545C30.5998 6.67469 30.7962 6.74196 30.8972 6.7868C30.9926 6.83166 31.1723 6.90453 31.29 6.95498C31.4023 7.00543 31.5426 7.06709 31.593 7.09512C31.6492 7.12315 31.7333 7.14557 31.7781 7.14557C31.8231 7.14557 31.8624 7.16801 31.8624 7.20163C31.8624 7.22966 31.9129 7.2577 31.9747 7.2577C32.0364 7.2577 32.0868 7.28011 32.0868 7.31375C32.0868 7.34178 32.1374 7.36981 32.1991 7.36981C32.2609 7.36981 32.3113 7.39223 32.3113 7.42587C32.3113 7.45389 32.3506 7.48193 32.3954 7.48193C32.4404 7.48193 32.5245 7.50435 32.5806 7.53237C32.6311 7.5604 32.8556 7.66691 33.0689 7.77903C33.6412 8.05932 34.1069 8.31719 34.2808 8.4405C34.365 8.49657 34.4604 8.54702 34.4941 8.54702C34.5278 8.54702 34.5557 8.56944 34.5557 8.60308C34.5557 8.63111 34.6007 8.65913 34.6567 8.65913C34.7129 8.65913 34.7915 8.70959 34.8364 8.77125C34.8813 8.83292 34.9598 8.88337 35.016 8.88337C35.072 8.88337 35.117 8.90018 35.117 8.92261C35.117 8.95063 35.173 8.99547 35.2459 9.02911C35.4929 9.14684 36.6039 9.84756 36.6208 9.898C36.6319 9.92603 36.6769 9.94846 36.7217 9.94846C36.7666 9.94846 36.8003 9.97089 36.8003 10.0045C36.8003 10.0325 36.8396 10.0606 36.8845 10.0606C36.9295 10.0606 36.9687 10.083 36.9687 10.1166C36.9687 10.1447 36.9911 10.1727 37.0247 10.1727C37.1034 10.1727 37.3895 10.4362 38.3097 11.3555C39.1795 12.2244 39.3478 12.4038 39.6621 12.8074C39.7687 12.9476 39.9089 13.1157 39.9707 13.1774C40.1221 13.3344 40.2231 13.4688 40.3915 13.7043C40.4645 13.8108 40.5487 13.923 40.5711 13.9566C40.8011 14.2481 41.0087 14.5508 41.0087 14.5956C41.0087 14.6293 41.0368 14.6573 41.0649 14.6573C41.0985 14.6573 41.121 14.6965 41.121 14.7415C41.121 14.7862 41.149 14.8255 41.177 14.8255C41.2107 14.8255 41.2332 14.8647 41.2332 14.9096C41.2332 14.9544 41.2613 14.9937 41.2893 14.9937C41.323 14.9937 41.3455 15.0329 41.3455 15.0778C41.3455 15.1225 41.3734 15.1618 41.4015 15.1618C41.4352 15.1618 41.4577 15.2011 41.4577 15.2459C41.4577 15.2908 41.4857 15.3301 41.5138 15.3301C41.5475 15.3301 41.57 15.3749 41.57 15.4309C41.57 15.487 41.6204 15.5654 41.6821 15.6103C41.7439 15.6551 41.7943 15.7113 41.7943 15.7392C41.7943 15.7673 41.8728 15.8961 41.9626 16.0308C42.0581 16.1653 42.131 16.2885 42.131 16.3111C42.131 16.367 42.2881 16.5073 42.3499 16.5073C42.3835 16.5073 42.4116 16.5577 42.4116 16.6194C42.4116 16.6809 42.4397 16.7314 42.4677 16.7314C42.5014 16.7314 42.5238 16.6922 42.5238 16.6473C42.5238 16.6025 42.5519 16.5633 42.5799 16.5633C42.6136 16.5633 42.6361 16.5016 42.6361 16.4287C42.6361 16.3502 42.6136 16.2718 42.5799 16.2549C42.5519 16.2382 42.5238 16.1708 42.5238 16.1092C42.5238 16.0532 42.5014 16.0027 42.4677 16.0027C42.4397 16.0027 42.4116 15.969 42.4116 15.9298C42.4116 15.8289 42.2769 15.5542 42.232 15.5542C42.2039 15.5542 42.1871 15.5151 42.1871 15.4701C42.1871 15.3972 42.1422 15.2851 41.8449 14.6293C41.5307 13.9398 41.4577 13.7267 41.4632 13.5137C41.4632 13.3904 41.4801 13.3175 41.4969 13.3512C41.5082 13.3904 41.5475 13.424 41.5755 13.424C41.6765 13.424 41.6204 13.3119 41.4296 13.1214C41.323 13.0092 41.2332 12.8971 41.2332 12.8635C41.2332 12.8298 41.1041 12.6785 40.9527 12.5271C40.7955 12.3758 40.6722 12.2412 40.6722 12.2244C40.6722 12.1908 40.3466 11.832 39.9595 11.4284C39.8248 11.2939 39.7182 11.1705 39.7182 11.1537C39.7182 11.0976 39.0841 10.5371 39.0392 10.5483C39.0111 10.5595 39.0055 10.5259 39.0223 10.481C39.0448 10.425 39.0223 10.3969 38.9494 10.3969C38.8428 10.3969 38.652 10.24 38.652 10.1503C38.652 10.0998 38.5061 9.94846 38.4556 9.94846C38.4331 9.94846 38.248 9.78029 38.0348 9.56728C37.5353 9.07957 37.2773 8.84413 36.9687 8.60308C36.6937 8.39005 36.1775 7.91917 35.9979 7.71736C35.9305 7.6501 35.8632 7.59404 35.8351 7.59404C35.8128 7.59404 35.7061 7.51556 35.6107 7.42026C35.3919 7.21846 34.7073 6.75318 34.6175 6.75318C34.5838 6.75318 34.5557 6.73075 34.5557 6.70832C34.5557 6.6803 34.466 6.62984 34.3594 6.58499C34.2529 6.54015 34.163 6.4897 34.163 6.46167C34.163 6.43925 34.1125 6.41682 34.0509 6.41682C33.9891 6.41682 33.9386 6.3888 33.9386 6.36077C33.9386 6.32713 33.888 6.30471 33.8263 6.30471C33.7645 6.30471 33.7141 6.27667 33.7141 6.24865C33.7141 6.21502 33.6635 6.1926 33.6019 6.1926C33.5402 6.1926 33.4896 6.16457 33.4896 6.13654C33.4896 6.1029 33.4392 6.08048 33.3774 6.08048C33.3157 6.08048 33.2653 6.05245 33.2653 6.02442C33.2653 5.99078 33.2316 5.96837 33.1866 5.96837C33.1418 5.96837 32.9846 5.9067 32.8331 5.83383C32.3562 5.59839 32.0364 5.46385 31.9466 5.46385C31.9016 5.46385 31.8624 5.43581 31.8624 5.40779C31.8624 5.37416 31.8118 5.35173 31.7558 5.35173C31.694 5.35173 31.6267 5.3237 31.6099 5.29567C31.593 5.26203 31.5257 5.23962 31.464 5.23962C31.4079 5.23962 31.3574 5.21159 31.3574 5.18356C31.3574 5.14992 31.2956 5.12749 31.2227 5.12749C31.1442 5.12749 31.0656 5.09947 31.0488 5.07144C31.0319 5.0378 30.9646 5.01539 30.9028 5.01539C30.8467 5.01539 30.7962 4.98736 30.7962 4.95933C30.7962 4.92569 30.7345 4.90327 30.656 4.90327C30.5774 4.90327 30.4708 4.88084 30.4147 4.85282C30.2857 4.77995 29.068 4.39875 28.9782 4.39875C28.9333 4.39875 28.6752 4.32027 28.3947 4.23057C28.1141 4.13528 27.7942 4.0624 27.6876 4.0624C27.581 4.0624 27.48 4.03998 27.4632 4.01195C27.4296 3.9671 27.2892 3.93347 26.7169 3.8606C26.5822 3.84378 26.4756 3.80454 26.4756 3.77651C26.4756 3.74848 26.4027 3.72606 26.3072 3.72606C26.2175 3.72606 26.1389 3.69803 26.1389 3.67C26.1389 3.63636 26.0155 3.61394 25.8583 3.61394C25.5778 3.61394 24.9269 3.52985 24.5677 3.44577C23.67 3.23275 22.1212 3.15988 21.2852 3.28881Z" fill="#155EEF"/>
</g>
<path d="M61.3228 39.0002V15.0694H70.4838C72.2132 15.0694 73.6504 15.3421 74.7955 15.8874C75.9485 16.4249 76.8093 17.161 77.3779 18.0958C77.9544 19.0306 78.2426 20.0901 78.2426 21.2741C78.2426 22.2479 78.0557 23.0814 77.6817 23.7747C77.3078 24.4602 76.8054 25.0172 76.1744 25.4457C75.5434 25.8741 74.8384 26.1818 74.0594 26.3688V26.6025C74.9085 26.6492 75.7226 26.9102 76.5016 27.3854C77.2883 27.8528 77.931 28.5149 78.4296 29.3718C78.9281 30.2287 79.1774 31.2648 79.1774 32.48C79.1774 33.7186 78.8775 34.8326 78.2777 35.8219C77.6778 36.8035 76.7742 37.5786 75.5668 38.1472C74.3593 38.7159 72.8403 39.0002 71.0096 39.0002H61.3228ZM65.6579 35.3779H70.3202C71.8938 35.3779 73.0272 35.078 73.7205 34.4782C74.4216 33.8705 74.7722 33.0915 74.7722 32.1412C74.7722 31.4323 74.5969 30.7935 74.2464 30.2248C73.8958 29.6484 73.3972 29.1965 72.7507 28.8694C72.1041 28.5344 71.3329 28.3669 70.4371 28.3669H65.6579V35.3779ZM65.6579 25.247H69.9463C70.6941 25.247 71.368 25.1107 71.9678 24.8381C72.5676 24.5576 73.0389 24.1642 73.3817 23.6579C73.7322 23.1437 73.9075 22.5361 73.9075 21.835C73.9075 20.908 73.5803 20.1446 72.926 19.5448C72.2794 18.9449 71.3173 18.645 70.0398 18.645H65.6579V25.247ZM86.1358 15.0694V39.0002H81.9059V15.0694H86.1358ZM101.069 31.4517V21.0521H105.299V39.0002H101.198V35.8102H101.011C100.606 36.8152 99.9397 37.637 99.0127 38.2758C98.0935 38.9146 96.96 39.2339 95.6124 39.2339C94.4361 39.2339 93.3961 38.973 92.4925 38.4511C91.5966 37.9213 90.8955 37.154 90.3892 36.1491C89.8828 35.1364 89.6297 33.9134 89.6297 32.48V21.0521H93.8596V31.8257C93.8596 32.963 94.1712 33.8666 94.7944 34.5366C95.4176 35.2065 96.2356 35.5415 97.2483 35.5415C97.8715 35.5415 98.4752 35.3896 99.0594 35.0858C99.6437 34.782 100.123 34.3301 100.497 33.7303C100.878 33.1227 101.069 32.3632 101.069 31.4517ZM116.739 39.3508C114.939 39.3508 113.385 38.9769 112.077 38.229C110.776 37.4734 109.775 36.4062 109.073 35.0274C108.372 33.6407 108.022 32.0087 108.022 30.1313C108.022 28.2851 108.372 26.6648 109.073 25.2704C109.782 23.8682 110.772 22.7776 112.041 21.9986C113.311 21.2118 114.803 20.8184 116.517 20.8184C117.623 20.8184 118.667 20.9976 119.648 21.3559C120.638 21.7065 121.51 22.2518 122.266 22.9918C123.029 23.7319 123.629 24.6745 124.065 25.8196C124.502 26.9569 124.72 28.3124 124.72 29.886V31.183H110.008V28.3319H120.665C120.657 27.5217 120.482 26.8011 120.139 26.1701C119.796 25.5314 119.317 25.0289 118.702 24.6628C118.094 24.2966 117.385 24.1136 116.575 24.1136C115.711 24.1136 114.951 24.3239 114.297 24.7446C113.642 25.1574 113.132 25.7027 112.766 26.3805C112.408 27.0504 112.225 27.7866 112.217 28.5889V31.0778C112.217 32.1217 112.408 33.0175 112.789 33.7654C113.171 34.5054 113.705 35.0741 114.39 35.4714C115.076 35.8609 115.878 36.0556 116.797 36.0556C117.413 36.0556 117.97 35.9699 118.468 35.7986C118.967 35.6194 119.399 35.3584 119.765 35.0157C120.131 34.6729 120.408 34.2484 120.595 33.742L124.544 34.186C124.295 35.2299 123.82 36.1413 123.119 36.9203C122.426 37.6915 121.537 38.2914 120.455 38.7198C119.372 39.1405 118.133 39.3508 116.739 39.3508ZM143.661 22.7114C143.466 22.0804 143.198 21.5156 142.855 21.0171C142.52 20.5107 142.115 20.0784 141.64 19.72C141.172 19.3617 140.635 19.0929 140.027 18.9138C139.419 18.7268 138.757 18.6333 138.041 18.6333C136.755 18.6333 135.61 18.9566 134.605 19.6032C133.6 20.2497 132.81 21.2001 132.233 22.4543C131.664 23.7007 131.38 25.2198 131.38 27.0115C131.38 28.8187 131.664 30.3495 132.233 31.6037C132.802 32.8578 133.592 33.8121 134.605 34.4665C135.618 35.113 136.794 35.4363 138.134 35.4363C139.349 35.4363 140.401 35.2026 141.289 34.7352C142.185 34.2678 142.874 33.6057 143.357 32.7488C143.84 31.8841 144.082 30.8714 144.082 29.7107L145.063 29.8626H138.566V26.4739H148.277V29.3485C148.277 31.3972 147.84 33.1694 146.968 34.6651C146.095 36.1608 144.896 37.3137 143.369 38.1239C141.842 38.9262 140.089 39.3274 138.111 39.3274C135.906 39.3274 133.97 38.8328 132.303 37.8434C130.644 36.8463 129.347 35.4324 128.412 33.6018C127.485 31.7633 127.022 29.5822 127.022 27.0582C127.022 25.1263 127.294 23.4008 127.84 21.8818C128.393 20.3627 129.164 19.0735 130.153 18.014C131.143 16.9468 132.303 16.1366 133.635 15.5835C134.967 15.0227 136.416 14.7422 137.982 14.7422C139.306 14.7422 140.541 14.937 141.686 15.3265C142.831 15.7082 143.848 16.2535 144.736 16.9624C145.632 17.6713 146.368 18.5126 146.945 19.4863C147.521 20.4601 147.899 21.5351 148.078 22.7114H143.661ZM159.371 39.3508C157.572 39.3508 156.018 38.9769 154.709 38.229C153.408 37.4734 152.407 36.4062 151.706 35.0274C151.005 33.6407 150.655 32.0087 150.655 30.1313C150.655 28.2851 151.005 26.6648 151.706 25.2704C152.415 23.8682 153.404 22.7776 154.674 21.9986C155.944 21.2118 157.436 20.8184 159.149 20.8184C160.256 20.8184 161.3 20.9976 162.281 21.3559C163.27 21.7065 164.143 22.2518 164.898 22.9918C165.662 23.7319 166.262 24.6745 166.698 25.8196C167.134 26.9569 167.352 28.3124 167.352 29.886V31.183H152.641V28.3319H163.298C163.29 27.5217 163.115 26.8011 162.772 26.1701C162.429 25.5314 161.95 25.0289 161.335 24.6628C160.727 24.2966 160.018 24.1136 159.208 24.1136C158.343 24.1136 157.584 24.3239 156.929 24.7446C156.275 25.1574 155.765 25.7027 155.399 26.3805C155.04 27.0504 154.857 27.7866 154.849 28.5889V31.0778C154.849 32.1217 155.04 33.0175 155.422 33.7654C155.804 34.5054 156.337 35.0741 157.023 35.4714C157.708 35.8609 158.511 36.0556 159.43 36.0556C160.045 36.0556 160.602 35.9699 161.101 35.7986C161.599 35.6194 162.032 35.3584 162.398 35.0157C162.764 34.6729 163.041 34.2484 163.228 33.742L167.177 34.186C166.928 35.2299 166.453 36.1413 165.751 36.9203C165.058 37.6915 164.17 38.2914 163.087 38.7198C162.005 39.1405 160.766 39.3508 159.371 39.3508ZM174.305 28.4838V39.0002H170.075V21.0521H174.118V24.1019H174.328C174.741 23.097 175.399 22.2985 176.303 21.7065C177.214 21.1144 178.34 20.8184 179.68 20.8184C180.919 20.8184 181.998 21.0833 182.917 21.613C183.844 22.1427 184.56 22.91 185.067 23.9149C185.581 24.9198 185.834 26.139 185.826 27.5723V39.0002H181.596V28.2267C181.596 27.027 181.285 26.0883 180.662 25.4106C180.046 24.7329 179.193 24.394 178.103 24.394C177.362 24.394 176.704 24.5576 176.128 24.8848C175.559 25.2042 175.111 25.6677 174.784 26.2753C174.465 26.8829 174.305 27.6191 174.305 28.4838Z" fill="#004EEB"/>
<path d="M192.531 39.0002H187.903L196.328 15.0694H201.68L210.116 39.0002H205.489L199.098 19.9771H198.911L192.531 39.0002ZM192.682 29.6172H205.302V33.0993H192.682V29.6172ZM216.748 15.0694V39.0002H212.413V15.0694H216.748Z" fill="#004EEB"/>
<defs>
<clipPath id="clip0_360_5086">
<rect width="45.6484" height="47.5504" fill="white" transform="translate(0 3.22485)"/>
</clipPath>
</defs>
</svg>
